<svg id="svg" xmlns="http://www.w3.org/2000/svg" xmlns:xlink="http://www.w3.org/1999/xlink" width="400" height="300" viewBox="0, 0, 400,300"><g id="svgg"><path id="path0" d="M263.616 71.715 C 263.121 71.843,261.260 71.963,259.480 71.983 C 257.189 72.008,255.744 72.184,254.529 72.586 C 253.585 72.899,252.089 73.306,251.205 73.490 C 249.076 73.935,242.770 76.412,242.011 77.102 C 241.680 77.402,240.803 77.934,240.060 78.285 C 238.789 78.884,237.601 79.639,235.859 80.952 C 235.446 81.263,234.642 81.777,234.072 82.094 C 233.502 82.411,232.663 83.042,232.207 83.496 C 231.751 83.950,231.268 84.321,231.134 84.321 C 230.859 84.321,226.962 88.101,224.456 90.797 C 222.847 92.529,221.873 93.837,220.171 96.554 C 219.712 97.287,219.119 98.103,218.854 98.368 C 218.588 98.634,218.189 99.286,217.967 99.818 C 217.745 100.349,217.432 100.865,217.272 100.964 C 215.962 101.774,211.838 112.899,211.848 115.595 C 211.851 116.525,211.571 117.608,211.032 118.746 L 210.211 120.480 210.057 151.088 L 209.902 181.695 209.077 183.261 C 208.414 184.519,208.251 185.225,208.248 186.862 C 208.246 188.472,208.090 189.168,207.504 190.193 C 207.096 190.906,206.502 192.324,206.183 193.344 C 205.368 195.953,203.392 200.759,202.771 201.642 C 202.485 202.050,202.251 202.546,202.251 202.744 C 202.251 202.943,201.927 203.489,201.531 203.960 C 201.135 204.430,200.505 205.403,200.130 206.123 C 199.755 206.842,199.138 207.766,198.758 208.175 C 198.379 208.584,197.995 209.153,197.904 209.438 C 197.814 209.723,197.404 210.136,196.994 210.355 C 196.584 210.575,196.249 210.845,196.249 210.956 C 196.249 211.348,187.447 219.991,186.603 220.428 C 186.132 220.671,185.746 220.981,185.746 221.116 C 185.746 221.251,185.105 221.685,184.321 222.082 C 183.537 222.478,182.712 222.977,182.487 223.191 C 182.262 223.405,181.249 223.976,180.236 224.460 C 179.223 224.944,177.924 225.614,177.349 225.948 C 176.774 226.283,176.083 226.557,175.814 226.557 C 175.545 226.557,174.987 226.822,174.575 227.147 C 174.162 227.471,173.165 227.960,172.359 228.234 C 171.552 228.508,170.613 229.034,170.271 229.403 C 169.900 229.803,169.113 230.154,168.320 230.274 C 165.691 230.672,165.602 231.421,168.122 231.942 C 170.005 232.332,335.120 232.152,341.335 231.753 C 344.510 231.550,345.432 231.383,346.287 230.859 C 346.923 230.468,348.263 230.095,349.686 229.911 C 351.079 229.731,352.259 229.405,352.584 229.111 C 352.885 228.839,353.759 228.427,354.525 228.196 C 355.291 227.965,356.283 227.526,356.729 227.220 C 357.175 226.914,358.215 226.417,359.040 226.116 C 359.865 225.814,360.878 225.336,361.290 225.053 C 361.703 224.770,362.648 224.256,363.391 223.912 C 366.786 222.339,370.943 219.338,373.400 216.687 C 373.919 216.127,374.934 215.114,375.655 214.436 C 378.618 211.651,379.697 210.405,381.512 207.671 C 382.560 206.093,383.691 204.261,384.025 203.601 C 384.359 202.941,384.907 202.152,385.243 201.849 C 385.578 201.545,385.943 200.763,386.053 200.111 C 386.168 199.434,386.628 198.515,387.125 197.970 C 387.707 197.333,387.997 196.696,387.997 196.055 C 387.997 195.469,388.289 194.748,388.747 194.203 C 389.244 193.613,389.662 192.514,389.983 190.954 C 390.250 189.658,390.717 188.248,391.019 187.820 C 392.152 186.223,392.348 180.858,392.348 151.538 C 392.348 121.707,392.191 117.889,390.834 114.629 C 390.456 113.721,390.074 112.460,389.987 111.827 C 389.899 111.194,389.415 110.034,388.912 109.250 C 388.409 108.466,387.997 107.553,387.997 107.221 C 387.997 106.538,386.167 102.952,385.101 101.547 C 384.713 101.036,384.396 100.477,384.396 100.304 C 384.396 99.806,381.686 95.082,380.735 93.923 C 380.262 93.346,379.765 92.738,379.631 92.573 C 379.497 92.408,378.658 91.565,377.766 90.700 C 376.874 89.835,375.671 88.574,375.094 87.898 C 372.930 85.366,370.350 83.249,367.817 81.927 C 367.033 81.518,366.392 81.081,366.392 80.958 C 366.392 80.834,365.869 80.466,365.231 80.140 C 364.592 79.814,363.161 78.925,362.049 78.164 C 360.938 77.403,359.738 76.669,359.384 76.533 C 359.030 76.397,357.929 75.910,356.939 75.452 C 355.949 74.994,353.653 74.226,351.838 73.746 C 350.023 73.267,348.065 72.733,347.487 72.561 C 344.742 71.743,266.568 70.954,263.616 71.715 M102.476 108.531 C 102.146 108.618,101.673 108.857,101.425 109.063 C 100.937 109.468,98.994 109.998,97.060 110.254 C 95.661 110.440,91.250 112.569,90.462 113.440 C 90.169 113.764,89.782 114.032,89.601 114.036 C 89.158 114.046,86.965 116.140,86.099 117.380 C 85.715 117.930,85.295 118.453,85.167 118.544 C 84.928 118.711,83.764 121.702,82.894 124.381 C 80.868 130.627,83.674 141.815,87.922 144.428 C 88.335 144.682,89.752 145.921,91.073 147.182 C 92.503 148.548,94.110 149.763,95.049 150.189 C 95.915 150.583,96.624 151.034,96.624 151.191 C 96.624 151.349,97.333 151.647,98.200 151.854 C 99.066 152.060,100.067 152.419,100.424 152.651 C 100.780 152.883,101.984 153.403,103.098 153.807 C 104.213 154.212,105.543 154.861,106.054 155.251 C 106.565 155.641,107.428 156.057,107.972 156.177 C 110.578 156.749,114.631 162.109,114.625 164.975 C 114.611 171.849,110.832 175.013,102.626 175.022 C 100.525 175.024,93.750 174.386,92.873 174.103 C 90.726 173.410,87.667 172.154,85.769 171.187 C 82.565 169.554,81.921 169.842,81.356 173.168 C 80.947 175.576,80.932 176.863,81.301 178.073 C 81.455 178.580,81.732 179.573,81.916 180.279 C 82.364 182.003,85.963 184.546,87.953 184.546 C 88.259 184.546,89.221 184.874,90.091 185.274 C 91.196 185.782,92.713 186.112,95.124 186.368 C 97.022 186.570,99.098 186.918,99.738 187.141 C 101.381 187.715,103.863 187.642,106.820 186.933 C 108.219 186.598,110.177 186.246,111.171 186.151 C 112.330 186.041,113.380 185.722,114.097 185.263 C 114.712 184.869,115.419 184.546,115.666 184.546 C 116.409 184.546,118.614 183.604,119.635 182.850 C 120.160 182.463,120.710 182.146,120.857 182.146 C 121.803 182.146,128.132 174.220,128.132 173.036 C 128.132 172.878,128.455 172.327,128.849 171.809 C 130.090 170.183,130.697 162.646,129.953 158.107 C 129.545 155.612,122.471 146.137,121.018 146.137 C 120.867 146.137,120.463 145.876,120.121 145.557 C 119.779 145.238,118.032 144.290,116.239 143.450 C 114.445 142.609,112.218 141.520,111.290 141.028 C 110.361 140.537,109.348 140.135,109.039 140.134 C 108.730 140.133,108.005 139.829,107.427 139.459 C 106.849 139.088,105.886 138.515,105.287 138.185 C 103.816 137.374,101.257 135.387,99.691 133.839 C 95.268 129.466,97.383 122.607,103.826 120.431 C 106.112 119.659,113.171 120.074,114.324 121.049 C 114.574 121.260,115.589 121.603,116.579 121.811 C 117.569 122.019,119.392 122.659,120.630 123.233 C 124.621 125.084,125.799 124.067,125.774 118.792 C 125.756 114.903,124.700 112.913,122.131 111.919 C 121.553 111.696,120.608 111.216,120.030 110.853 C 119.359 110.431,118.301 110.137,117.102 110.038 C 115.872 109.937,114.837 109.643,114.101 109.187 C 112.991 108.497,104.432 108.014,102.476 108.531 M29.779 110.576 C 26.223 112.122,26.384 110.280,26.476 148.405 L 26.557 181.395 27.234 182.663 C 27.680 183.497,28.477 184.292,29.565 184.988 L 31.219 186.047 50.438 186.047 C 63.633 186.047,69.847 185.945,70.263 185.722 C 71.929 184.831,72.730 178.603,71.492 176.157 C 70.764 174.718,70.813 174.723,56.864 174.538 C 43.200 174.357,42.924 174.324,42.403 172.824 C 41.847 171.224,41.876 155.142,42.437 153.800 C 43.085 152.247,43.885 152.142,55.008 152.140 C 61.224 152.139,65.070 152.023,65.436 151.827 C 67.172 150.899,68.090 146.381,67.050 143.892 C 66.000 141.379,66.587 141.514,55.572 141.256 C 40.717 140.909,42.011 141.875,42.011 131.133 C 42.011 123.920,42.064 123.033,42.536 122.466 C 43.053 121.844,43.257 121.834,56.362 121.758 L 69.664 121.680 70.691 120.560 L 71.718 119.439 71.716 116.208 C 71.714 112.040,71.403 110.886,70.166 110.455 C 68.619 109.915,31.040 110.028,29.779 110.576 M145.986 110.336 C 145.170 110.542,144.153 111.520,143.755 112.483 C 143.521 113.049,143.449 123.558,143.506 148.888 L 143.586 184.498 144.313 185.272 L 145.041 186.047 150.269 186.047 C 158.602 186.047,158.140 186.882,158.140 171.820 C 158.140 163.213,158.227 160.545,158.515 160.316 C 158.721 160.153,160.713 159.940,162.941 159.844 C 166.423 159.693,170.922 159.035,171.681 158.566 C 171.809 158.487,173.146 158.309,174.652 158.170 C 176.609 157.989,177.621 157.748,178.193 157.326 C 178.634 157.001,179.702 156.501,180.567 156.214 C 181.431 155.928,182.213 155.573,182.303 155.426 C 182.394 155.280,183.398 154.671,184.534 154.074 C 187.154 152.697,191.748 148.139,191.748 146.916 C 191.748 146.841,192.232 145.732,192.824 144.451 C 195.413 138.846,195.390 127.478,192.779 122.528 C 191.084 119.314,189.273 116.861,188.177 116.295 C 187.705 116.050,186.931 115.525,186.458 115.127 C 185.191 114.062,180.980 111.928,180.147 111.928 C 179.751 111.928,178.587 111.557,177.560 111.103 L 175.694 110.278 161.140 110.231 C 153.136 110.205,146.317 110.252,145.986 110.336 M269.317 112.258 C 270.638 112.428,272.443 112.895,273.330 113.297 C 274.216 113.699,275.070 114.029,275.226 114.029 C 275.760 114.029,279.407 116.807,279.907 117.595 C 280.181 118.026,280.634 118.589,280.915 118.845 C 284.012 121.672,285.346 133.529,283.125 138.485 C 282.756 139.310,282.271 140.453,282.048 141.025 C 281.674 141.987,280.757 143.035,278.625 144.936 C 277.568 145.879,276.060 146.816,274.071 147.766 C 271.604 148.944,271.629 149.579,274.170 150.309 C 274.967 150.538,275.769 150.841,275.952 150.983 C 276.135 151.125,277.027 151.496,277.934 151.808 C 278.841 152.121,280.216 152.859,280.990 153.450 C 281.764 154.040,282.575 154.628,282.794 154.756 C 283.747 155.314,286.576 160.329,287.496 163.091 C 288.170 165.116,288.003 172.114,287.245 173.601 C 286.909 174.259,286.477 175.380,286.286 176.092 C 286.094 176.804,285.472 178.113,284.904 179.001 C 284.336 179.890,283.871 180.724,283.871 180.856 C 283.870 181.455,278.419 186.047,277.708 186.047 C 277.512 186.047,276.844 186.450,276.224 186.943 C 275.604 187.435,274.644 187.964,274.091 188.116 C 273.538 188.269,272.677 188.685,272.179 189.040 C 271.674 189.399,270.240 189.877,268.944 190.118 C 267.664 190.356,266.048 190.683,265.353 190.845 C 262.385 191.536,258.532 191.777,255.814 191.441 C 251.157 190.865,245.181 189.638,244.176 189.053 C 243.645 188.743,242.603 188.254,241.860 187.964 C 241.118 187.675,240.443 187.354,240.360 187.252 C 240.278 187.149,239.727 186.772,239.137 186.413 C 236.738 184.957,235.784 181.225,236.567 176.366 C 237.002 173.662,239.238 173.295,242.761 175.349 C 243.503 175.782,244.381 176.140,244.711 176.143 C 245.041 176.147,246.054 176.496,246.962 176.920 C 250.116 178.391,257.068 178.859,261.515 177.899 C 263.832 177.399,266.928 175.175,268.549 172.843 L 269.906 170.893 269.909 167.880 C 269.912 163.426,266.795 159.179,262.649 157.990 C 261.696 157.716,260.620 157.303,260.259 157.071 C 259.349 156.487,255.078 156.045,250.263 156.037 C 244.453 156.027,243.916 155.551,243.845 150.338 C 243.770 144.765,243.950 144.639,252.456 144.302 L 259.000 144.043 261.158 142.972 C 270.438 138.367,268.965 125.462,258.983 123.913 C 256.261 123.491,251.433 124.172,249.225 125.290 C 248.420 125.698,247.547 126.041,247.286 126.053 C 247.025 126.066,246.452 126.302,246.013 126.579 C 245.574 126.855,244.471 127.515,243.562 128.046 C 242.653 128.576,241.823 129.150,241.717 129.321 C 241.171 130.206,239.087 129.327,238.611 128.011 C 236.403 121.905,240.212 115.474,246.962 113.914 C 248.035 113.666,249.469 113.265,250.151 113.022 C 251.310 112.609,255.088 112.061,258.515 111.810 C 260.649 111.654,266.493 111.896,269.317 112.258 M330.222 112.839 C 335.777 113.249,342.399 114.324,344.036 115.081 C 349.999 117.842,350.894 118.345,353.068 120.159 C 357.107 123.528,359.991 126.608,360.953 128.577 C 362.408 131.557,363.991 135.810,363.991 136.739 C 363.991 137.219,364.352 138.956,364.794 140.599 C 365.979 145.010,365.989 156.286,364.811 161.140 C 364.390 162.873,363.876 165.101,363.668 166.092 C 363.460 167.082,363.196 168.027,363.080 168.192 C 362.965 168.357,362.632 169.235,362.341 170.143 C 361.776 171.903,360.099 174.909,358.992 176.144 C 358.622 176.557,357.497 177.866,356.492 179.053 C 355.487 180.240,354.164 181.511,353.552 181.877 C 352.939 182.243,352.168 182.782,351.838 183.075 C 351.067 183.758,346.438 186.047,345.827 186.047 C 345.571 186.047,344.583 186.452,343.632 186.947 C 342.513 187.529,341.114 187.951,339.668 188.141 C 338.440 188.302,336.557 188.721,335.484 189.072 C 333.652 189.671,332.742 189.720,320.571 189.865 C 305.522 190.045,305.451 190.040,303.653 188.460 L 302.326 187.294 302.326 151.229 L 302.326 115.163 303.357 114.302 C 305.319 112.664,305.966 112.578,316.419 112.552 C 321.695 112.539,327.906 112.668,330.222 112.839 M173.248 123.130 C 175.601 124.262,177.675 126.642,178.132 128.732 C 178.222 129.145,178.502 130.023,178.754 130.683 C 179.806 133.440,178.662 139.871,176.715 142.143 C 176.263 142.669,175.781 143.284,175.644 143.509 C 173.495 147.026,159.852 149.211,158.714 146.220 C 158.267 145.043,158.361 122.869,158.815 122.496 C 159.472 121.956,160.573 121.871,165.832 121.954 L 170.973 122.036 173.248 123.130 M318.214 125.572 C 317.408 127.501,317.584 175.069,318.402 176.411 L 319.022 177.428 324.477 177.251 C 327.478 177.153,330.540 176.921,331.283 176.735 C 332.026 176.550,333.351 176.279,334.228 176.133 C 335.105 175.988,336.523 175.540,337.379 175.137 C 338.235 174.735,339.407 174.201,339.985 173.950 C 341.373 173.347,343.629 171.224,344.670 169.542 C 346.387 166.767,348.072 163.160,348.356 161.650 C 348.517 160.792,348.882 159.482,349.167 158.740 C 350.133 156.221,350.150 145.762,349.193 143.039 C 348.777 141.854,348.277 140.278,348.083 139.535 C 346.991 135.355,342.559 129.568,339.252 128.003 C 338.354 127.578,337.547 127.114,337.459 126.972 C 337.372 126.830,336.655 126.552,335.867 126.355 C 335.078 126.157,333.691 125.800,332.783 125.561 C 329.901 124.802,327.351 124.536,322.940 124.533 L 318.649 124.531 318.214 125.572 " stroke="none" fill="#090909" fill-rule="evenodd"></path><path id="path1" d="M179.145 2.101 L 179.145 3.001 173.143 3.001 L 167.142 3.001 167.142 4.051 L 167.142 5.101 163.091 5.101 L 159.040 5.101 159.040 6.152 L 159.040 7.202 155.139 7.202 L 151.238 7.202 151.238 8.088 C 151.238 8.974,151.236 8.975,149.212 9.064 L 147.187 9.152 147.093 10.128 L 146.999 11.103 144.017 11.103 L 141.035 11.103 141.035 12.153 L 141.035 13.203 139.085 13.203 L 137.134 13.203 137.134 14.104 L 137.134 15.004 135.184 15.004 L 133.233 15.004 133.233 16.054 L 133.233 17.104 131.133 17.104 L 129.032 17.104 129.032 18.155 L 129.032 19.205 127.082 19.205 L 125.131 19.205 125.131 20.105 L 125.131 21.005 123.181 21.005 L 121.230 21.005 121.230 22.056 C 121.230 23.056,121.180 23.106,120.180 23.106 C 119.180 23.106,119.130 23.156,119.130 24.156 L 119.130 25.206 117.179 25.206 L 115.229 25.206 115.229 26.107 C 115.229 26.935,115.145 27.007,114.179 27.007 C 113.178 27.007,113.128 27.057,113.128 28.057 C 113.128 29.057,113.078 29.107,112.078 29.107 C 111.078 29.107,111.028 29.157,111.028 30.158 L 111.028 31.208 109.077 31.208 L 107.127 31.208 107.127 32.089 C 107.127 32.864,107.009 32.982,106.152 33.064 C 105.294 33.147,105.165 33.276,105.082 34.134 C 105.000 34.991,104.882 35.109,104.107 35.109 C 103.300 35.109,103.226 35.197,103.226 36.159 C 103.226 37.159,103.176 37.209,102.176 37.209 C 101.214 37.209,101.125 37.283,101.125 38.091 C 101.125 38.865,101.008 38.983,100.150 39.066 C 99.293 39.148,99.163 39.278,99.081 40.135 C 98.998 40.993,98.880 41.110,98.106 41.110 C 97.298 41.110,97.224 41.199,97.224 42.161 L 97.224 43.211 95.124 43.211 L 93.023 43.211 93.023 45.161 L 93.023 47.112 92.123 47.112 C 91.294 47.112,91.223 47.195,91.223 48.162 C 91.223 49.162,91.173 49.212,90.173 49.212 L 89.122 49.212 89.122 51.163 L 89.122 53.113 200.000 53.113 L 310.878 53.113 310.878 50.113 L 310.878 47.112 309.997 47.112 C 309.222 47.112,309.104 46.994,309.021 46.137 C 308.939 45.279,308.810 45.150,307.952 45.067 C 307.094 44.985,306.977 44.867,306.977 44.092 C 306.977 43.285,306.888 43.211,305.926 43.211 C 304.926 43.211,304.876 43.161,304.876 42.161 C 304.876 41.199,304.802 41.110,303.995 41.110 C 303.220 41.110,303.102 40.993,303.020 40.135 C 302.937 39.278,302.808 39.148,301.950 39.066 C 301.093 38.983,300.975 38.865,300.975 38.091 C 300.975 37.283,300.887 37.209,299.925 37.209 C 298.925 37.209,298.875 37.159,298.875 36.159 C 298.875 35.197,298.801 35.109,297.994 35.109 C 297.219 35.109,297.101 34.991,297.018 34.134 L 296.924 33.158 294.899 33.070 C 292.875 32.981,292.873 32.980,292.873 32.094 C 292.873 31.309,292.770 31.208,291.973 31.208 C 291.144 31.208,291.073 31.124,291.073 30.158 C 291.073 29.157,291.023 29.107,290.023 29.107 C 289.022 29.107,288.972 29.057,288.972 28.057 L 288.972 27.007 287.022 27.007 L 285.071 27.007 285.071 26.107 L 285.071 25.206 282.971 25.206 L 280.870 25.206 280.870 24.156 C 280.870 23.194,280.796 23.106,279.989 23.106 C 279.214 23.106,279.096 22.988,279.014 22.131 L 278.920 21.155 276.894 21.067 C 274.871 20.978,274.869 20.977,274.869 20.091 L 274.869 19.205 272.918 19.205 L 270.968 19.205 270.968 18.155 C 270.968 17.154,270.918 17.104,269.917 17.104 C 268.917 17.104,268.867 17.054,268.867 16.054 L 268.867 15.004 266.917 15.004 L 264.966 15.004 264.966 14.104 L 264.966 13.203 261.965 13.203 L 258.965 13.203 258.965 12.153 L 258.965 11.103 255.964 11.103 L 252.963 11.103 252.963 10.053 L 252.963 9.002 251.013 9.002 L 249.062 9.002 249.062 8.102 L 249.062 7.202 245.011 7.202 L 240.960 7.202 240.960 6.152 L 240.960 5.101 236.909 5.101 L 232.858 5.101 232.858 4.051 L 232.858 3.001 227.907 3.001 L 222.956 3.001 222.956 2.101 L 222.956 1.200 201.050 1.200 L 179.145 1.200 179.145 2.101 M51.213 63.216 C 51.103 63.326,51.013 63.798,51.013 64.266 L 51.013 65.116 47.112 65.116 L 43.211 65.116 43.211 66.167 L 43.211 67.217 40.210 67.217 L 37.209 67.217 37.209 68.103 C 37.209 68.989,37.207 68.990,35.184 69.079 L 33.158 69.167 33.064 70.143 C 32.982 71.000,32.864 71.118,32.089 71.118 C 31.282 71.118,31.208 71.206,31.208 72.168 L 31.208 73.218 29.107 73.218 L 27.007 73.218 27.007 74.119 C 27.007 74.919,26.907 75.019,26.107 75.019 C 25.278 75.019,25.206 75.102,25.206 76.069 C 25.206 77.069,25.156 77.119,24.156 77.119 C 23.156 77.119,23.106 77.169,23.106 78.170 C 23.106 79.170,23.056 79.220,22.056 79.220 C 21.089 79.220,21.005 79.291,21.005 80.120 C 21.005 80.920,20.905 81.020,20.105 81.020 C 19.276 81.020,19.205 81.104,19.205 82.071 C 19.205 83.071,19.155 83.121,18.155 83.121 C 17.154 83.121,17.104 83.171,17.104 84.171 C 17.104 85.171,17.054 85.221,16.054 85.221 C 15.087 85.221,15.004 85.293,15.004 86.122 C 15.004 86.922,14.904 87.022,14.104 87.022 L 13.203 87.022 13.203 89.122 L 13.203 91.223 12.153 91.223 C 11.191 91.223,11.103 91.297,11.103 92.104 C 11.103 92.879,10.985 92.997,10.128 93.079 L 9.152 93.173 9.064 95.199 C 8.975 97.222,8.974 97.224,8.088 97.224 C 7.303 97.224,7.202 97.327,7.202 98.125 C 7.202 98.953,7.118 99.025,6.152 99.025 L 5.101 99.025 5.101 102.006 L 5.101 104.988 4.126 105.082 L 3.151 105.176 3.065 108.102 L 2.979 111.028 2.090 111.028 L 1.200 111.028 1.200 115.079 C 1.200 118.930,1.171 119.130,0.600 119.130 C 0.004 119.130,0.000 119.330,0.000 151.088 C 0.000 182.846,0.004 183.046,0.600 183.046 C 1.176 183.046,1.200 183.246,1.200 187.997 L 1.200 192.948 2.101 192.948 L 3.001 192.948 3.001 195.949 L 3.001 198.950 4.051 198.950 L 5.101 198.950 5.101 201.050 L 5.101 203.151 6.152 203.151 L 7.202 203.151 7.202 205.101 L 7.202 207.052 8.083 207.052 C 8.858 207.052,8.976 207.169,9.058 208.027 C 9.141 208.885,9.270 209.014,10.128 209.096 L 11.103 209.190 11.103 211.122 L 11.103 213.053 12.153 213.053 C 13.153 213.053,13.203 213.103,13.203 214.104 C 13.203 215.070,13.275 215.154,14.104 215.154 L 15.004 215.154 15.004 217.104 L 15.004 219.055 16.054 219.055 C 17.054 219.055,17.104 219.105,17.104 220.105 C 17.104 221.105,17.154 221.155,18.155 221.155 C 19.121 221.155,19.205 221.227,19.205 222.056 C 19.205 222.856,19.305 222.956,20.105 222.956 C 20.934 222.956,21.005 223.039,21.005 224.006 L 21.005 225.056 23.106 225.056 L 25.206 225.056 25.206 226.107 C 25.206 227.073,25.278 227.157,26.107 227.157 C 26.907 227.157,27.007 227.257,27.007 228.057 C 27.007 228.886,27.090 228.957,28.057 228.957 C 29.057 228.957,29.107 229.007,29.107 230.008 L 29.107 231.058 31.039 231.058 L 32.970 231.058 33.064 232.033 L 33.158 233.008 35.184 233.097 C 37.207 233.186,37.209 233.187,37.209 234.072 L 37.209 234.959 39.160 234.959 L 41.110 234.959 41.110 236.009 L 41.110 237.059 44.111 237.059 L 47.112 237.059 47.112 238.110 L 47.112 239.160 51.163 239.160 L 55.214 239.160 55.214 240.060 L 55.214 240.960 201.050 240.960 L 346.887 240.960 346.887 240.060 L 346.887 239.160 349.887 239.160 L 352.888 239.160 352.888 238.110 L 352.888 237.059 355.889 237.059 L 358.890 237.059 358.890 236.009 L 358.890 234.959 360.990 234.959 L 363.091 234.959 363.091 234.059 L 363.091 233.158 365.041 233.158 L 366.992 233.158 366.992 232.108 L 366.992 231.058 368.942 231.058 L 370.893 231.058 370.893 230.008 C 370.893 229.007,370.943 228.957,371.943 228.957 C 372.905 228.957,372.993 228.883,372.993 228.076 C 372.993 227.301,373.111 227.183,373.968 227.101 C 374.826 227.018,374.955 226.889,375.038 226.032 L 375.132 225.056 377.063 225.056 L 378.995 225.056 378.995 224.006 L 378.995 222.956 380.945 222.956 L 382.896 222.956 382.896 221.005 L 382.896 219.055 383.946 219.055 C 384.946 219.055,384.996 219.005,384.996 218.005 C 384.996 217.004,385.046 216.954,386.047 216.954 L 387.097 216.954 387.097 215.004 L 387.097 213.053 387.997 213.053 C 388.826 213.053,388.897 212.970,388.897 212.003 C 388.897 211.003,388.947 210.953,389.947 210.953 C 390.909 210.953,390.998 210.879,390.998 210.072 C 390.998 209.297,391.115 209.179,391.973 209.096 L 392.948 209.002 393.037 206.977 C 393.126 204.953,393.127 204.951,394.012 204.951 L 394.899 204.951 394.899 203.001 L 394.899 201.050 395.949 201.050 L 396.999 201.050 396.999 198.050 L 396.999 195.049 398.050 195.049 L 399.100 195.049 399.100 193.098 C 399.100 191.565,399.196 191.148,399.550 191.148 C 399.948 191.148,400.000 186.613,400.000 152.138 C 400.000 117.663,399.948 113.128,399.550 113.128 C 399.180 113.128,399.100 112.595,399.100 110.128 L 399.100 107.127 398.050 107.127 L 396.999 107.127 396.999 105.176 L 396.999 103.226 395.949 103.226 L 394.899 103.226 394.899 101.125 L 394.899 99.025 393.998 99.025 L 393.098 99.025 393.098 97.074 L 393.098 95.124 392.048 95.124 L 390.998 95.124 390.998 93.173 L 390.998 91.223 389.947 91.223 C 388.947 91.223,388.897 91.173,388.897 90.173 C 388.897 89.211,388.823 89.122,388.016 89.122 C 387.241 89.122,387.123 89.005,387.041 88.147 C 386.958 87.290,386.829 87.160,385.971 87.078 L 384.996 86.984 384.996 85.052 L 384.996 83.121 383.946 83.121 C 382.946 83.121,382.896 83.071,382.896 82.071 C 382.896 81.104,382.824 81.020,381.995 81.020 C 381.195 81.020,381.095 80.920,381.095 80.120 C 381.095 79.291,381.012 79.220,380.045 79.220 C 379.045 79.220,378.995 79.170,378.995 78.170 L 378.995 77.119 377.063 77.119 L 375.132 77.119 375.038 76.144 C 374.955 75.287,374.826 75.157,373.968 75.075 C 373.111 74.992,372.993 74.874,372.993 74.100 C 372.993 73.292,372.905 73.218,371.943 73.218 C 370.943 73.218,370.893 73.168,370.893 72.168 L 370.893 71.118 368.942 71.118 L 366.992 71.118 366.992 70.068 L 366.992 69.017 365.041 69.017 L 363.091 69.017 363.091 68.117 L 363.091 67.217 360.090 67.217 L 357.089 67.217 357.089 66.167 L 357.089 65.116 354.108 65.116 L 351.126 65.116 351.032 64.141 L 350.938 63.166 201.176 63.090 C 118.806 63.049,51.323 63.105,51.213 63.216 M342.686 71.958 C 344.749 72.117,346.909 72.389,347.487 72.561 C 348.065 72.733,350.023 73.267,351.838 73.746 C 353.653 74.226,355.949 74.994,356.939 75.452 C 357.929 75.910,359.030 76.397,359.384 76.533 C 359.738 76.669,360.938 77.403,362.049 78.164 C 363.161 78.925,364.592 79.814,365.231 80.140 C 365.869 80.466,366.392 80.834,366.392 80.958 C 366.392 81.081,367.033 81.518,367.817 81.927 C 370.350 83.249,372.930 85.366,375.094 87.898 C 375.671 88.574,376.874 89.835,377.766 90.700 C 378.658 91.565,379.497 92.408,379.631 92.573 C 379.765 92.738,380.262 93.346,380.735 93.923 C 381.686 95.082,384.396 99.806,384.396 100.304 C 384.396 100.477,384.713 101.036,385.101 101.547 C 386.167 102.952,387.997 106.538,387.997 107.221 C 387.997 107.553,388.409 108.466,388.912 109.250 C 389.415 110.034,389.899 111.194,389.987 111.827 C 390.074 112.460,390.456 113.721,390.834 114.629 C 392.988 119.803,393.153 184.809,391.019 187.820 C 390.717 188.248,390.250 189.658,389.983 190.954 C 389.662 192.514,389.244 193.613,388.747 194.203 C 388.289 194.748,387.997 195.469,387.997 196.055 C 387.997 196.696,387.707 197.333,387.125 197.970 C 386.628 198.515,386.168 199.434,386.053 200.111 C 385.943 200.763,385.578 201.545,385.243 201.849 C 384.907 202.152,384.359 202.941,384.025 203.601 C 383.691 204.261,382.560 206.093,381.512 207.671 C 379.697 210.405,378.618 211.651,375.655 214.436 C 374.934 215.114,373.919 216.127,373.400 216.687 C 370.943 219.338,366.786 222.339,363.391 223.912 C 362.648 224.256,361.703 224.770,361.290 225.053 C 360.878 225.336,359.865 225.814,359.040 226.116 C 358.215 226.417,357.175 226.914,356.729 227.220 C 356.283 227.526,355.291 227.965,354.525 228.196 C 353.759 228.427,352.885 228.839,352.584 229.111 C 352.259 229.405,351.079 229.731,349.686 229.911 C 348.263 230.095,346.923 230.468,346.287 230.859 C 345.432 231.383,344.510 231.550,341.335 231.753 C 335.120 232.152,170.005 232.332,168.122 231.942 C 165.602 231.421,165.691 230.672,168.320 230.274 C 169.113 230.154,169.900 229.803,170.271 229.403 C 170.613 229.034,171.552 228.508,172.359 228.234 C 173.165 227.960,174.162 227.471,174.575 227.147 C 174.987 226.822,175.545 226.557,175.814 226.557 C 176.083 226.557,176.774 226.283,177.349 225.948 C 177.924 225.614,179.223 224.944,180.236 224.460 C 181.249 223.976,182.262 223.405,182.487 223.191 C 182.712 222.977,183.537 222.478,184.321 222.082 C 185.105 221.685,185.746 221.251,185.746 221.116 C 185.746 220.981,186.132 220.671,186.603 220.428 C 187.447 219.991,196.249 211.348,196.249 210.956 C 196.249 210.845,196.584 210.575,196.994 210.355 C 197.404 210.136,197.814 209.723,197.904 209.438 C 197.995 209.153,198.379 208.584,198.758 208.175 C 199.138 207.766,199.755 206.842,200.130 206.123 C 200.505 205.403,201.135 204.430,201.531 203.960 C 201.927 203.489,202.251 202.943,202.251 202.744 C 202.251 202.546,202.485 202.050,202.771 201.642 C 203.392 200.759,205.368 195.953,206.183 193.344 C 206.502 192.324,207.096 190.906,207.504 190.193 C 208.090 189.168,208.246 188.472,208.248 186.862 C 208.251 185.225,208.414 184.519,209.077 183.261 L 209.902 181.695 210.057 151.088 L 210.211 120.480 211.032 118.746 C 211.571 117.608,211.851 116.525,211.848 115.595 C 211.838 112.899,215.962 101.774,217.272 100.964 C 217.432 100.865,217.745 100.349,217.967 99.818 C 218.189 99.286,218.588 98.634,218.854 98.368 C 219.119 98.103,219.712 97.287,220.171 96.554 C 221.873 93.837,222.847 92.529,224.456 90.797 C 226.962 88.101,230.859 84.321,231.134 84.321 C 231.268 84.321,231.751 83.950,232.207 83.496 C 232.663 83.042,233.502 82.411,234.072 82.094 C 234.642 81.777,235.446 81.263,235.859 80.952 C 237.601 79.639,238.789 78.884,240.060 78.285 C 240.803 77.934,241.680 77.402,242.011 77.102 C 242.770 76.412,249.076 73.935,251.205 73.490 C 252.089 73.306,253.585 72.899,254.529 72.586 C 255.744 72.184,257.189 72.008,259.480 71.983 C 261.260 71.963,263.121 71.843,263.616 71.715 C 264.900 71.384,338.175 71.609,342.686 71.958 M114.101 109.187 C 114.837 109.643,115.872 109.937,117.102 110.038 C 118.301 110.137,119.359 110.431,120.030 110.853 C 120.608 111.216,121.553 111.696,122.131 111.919 C 124.700 112.913,125.756 114.903,125.774 118.792 C 125.799 124.067,124.621 125.084,120.630 123.233 C 119.392 122.659,117.569 122.019,116.579 121.811 C 115.589 121.603,114.574 121.260,114.324 121.049 C 113.171 120.074,106.112 119.659,103.826 120.431 C 97.383 122.607,95.268 129.466,99.691 133.839 C 101.257 135.387,103.816 137.374,105.287 138.185 C 105.886 138.515,106.849 139.088,107.427 139.459 C 108.005 139.829,108.730 140.133,109.039 140.134 C 109.348 140.135,110.361 140.537,111.290 141.028 C 112.218 141.520,114.445 142.609,116.239 143.450 C 118.032 144.290,119.779 145.238,120.121 145.557 C 120.463 145.876,120.867 146.137,121.018 146.137 C 122.471 146.137,129.545 155.612,129.953 158.107 C 130.697 162.646,130.090 170.183,128.849 171.809 C 128.455 172.327,128.132 172.878,128.132 173.036 C 128.132 174.220,121.803 182.146,120.857 182.146 C 120.710 182.146,120.160 182.463,119.635 182.850 C 118.614 183.604,116.409 184.546,115.666 184.546 C 115.419 184.546,114.712 184.869,114.097 185.263 C 113.380 185.722,112.330 186.041,111.171 186.151 C 110.177 186.246,108.219 186.598,106.820 186.933 C 103.863 187.642,101.381 187.715,99.738 187.141 C 99.098 186.918,97.022 186.570,95.124 186.368 C 92.713 186.112,91.196 185.782,90.091 185.274 C 89.221 184.874,88.259 184.546,87.953 184.546 C 85.963 184.546,82.364 182.003,81.916 180.279 C 81.732 179.573,81.455 178.580,81.301 178.073 C 80.932 176.863,80.947 175.576,81.356 173.168 C 81.921 169.842,82.565 169.554,85.769 171.187 C 87.667 172.154,90.726 173.410,92.873 174.103 C 93.750 174.386,100.525 175.024,102.626 175.022 C 110.832 175.013,114.611 171.849,114.625 164.975 C 114.631 162.109,110.578 156.749,107.972 156.177 C 107.428 156.057,106.565 155.641,106.054 155.251 C 105.543 154.861,104.213 154.212,103.098 153.807 C 101.984 153.403,100.780 152.883,100.424 152.651 C 100.067 152.419,99.066 152.060,98.200 151.854 C 97.333 151.647,96.624 151.349,96.624 151.191 C 96.624 151.034,95.915 150.583,95.049 150.189 C 94.110 149.763,92.503 148.548,91.073 147.182 C 89.752 145.921,88.335 144.682,87.922 144.428 C 83.674 141.815,80.868 130.627,82.894 124.381 C 83.764 121.702,84.928 118.711,85.167 118.544 C 85.295 118.453,85.715 117.930,86.099 117.380 C 86.965 116.140,89.158 114.046,89.601 114.036 C 89.782 114.032,90.169 113.764,90.462 113.440 C 91.250 112.569,95.661 110.440,97.060 110.254 C 98.994 109.998,100.937 109.468,101.425 109.063 C 102.684 108.018,112.372 108.113,114.101 109.187 M70.166 110.455 C 71.403 110.886,71.714 112.040,71.716 116.208 L 71.718 119.439 70.691 120.560 L 69.664 121.680 56.362 121.758 C 43.257 121.834,43.053 121.844,42.536 122.466 C 42.064 123.033,42.011 123.920,42.011 131.133 C 42.011 141.875,40.717 140.909,55.572 141.256 C 66.587 141.514,66.000 141.379,67.050 143.892 C 68.090 146.381,67.172 150.899,65.436 151.827 C 65.070 152.023,61.224 152.139,55.008 152.140 C 43.885 152.142,43.085 152.247,42.437 153.800 C 41.876 155.142,41.847 171.224,42.403 172.824 C 42.924 174.324,43.200 174.357,56.864 174.538 C 70.813 174.723,70.764 174.718,71.492 176.157 C 72.730 178.603,71.929 184.831,70.263 185.722 C 69.847 185.945,63.633 186.047,50.438 186.047 L 31.219 186.047 29.565 184.988 C 28.477 184.292,27.680 183.497,27.234 182.663 L 26.557 181.395 26.476 148.405 C 26.384 110.280,26.223 112.122,29.779 110.576 C 31.040 110.028,68.619 109.915,70.166 110.455 M177.560 111.103 C 178.587 111.557,179.751 111.928,180.147 111.928 C 180.980 111.928,185.191 114.062,186.458 115.127 C 186.931 115.525,187.705 116.050,188.177 116.295 C 189.273 116.861,191.084 119.314,192.779 122.528 C 195.390 127.478,195.413 138.846,192.824 144.451 C 192.232 145.732,191.748 146.841,191.748 146.916 C 191.748 148.139,187.154 152.697,184.534 154.074 C 183.398 154.671,182.394 155.280,182.303 155.426 C 182.213 155.573,181.431 155.928,180.567 156.214 C 179.702 156.501,178.634 157.001,178.193 157.326 C 177.621 157.748,176.609 157.989,174.652 158.170 C 173.146 158.309,171.809 158.487,171.681 158.566 C 170.922 159.035,166.423 159.693,162.941 159.844 C 160.713 159.940,158.721 160.153,158.515 160.316 C 158.227 160.545,158.140 163.213,158.140 171.820 C 158.140 186.882,158.602 186.047,150.269 186.047 L 145.041 186.047 144.313 185.272 L 143.586 184.498 143.506 148.888 C 143.422 111.649,143.400 112.317,144.735 111.087 C 145.726 110.175,145.610 110.181,161.140 110.231 L 175.694 110.278 177.560 111.103 M258.515 111.810 C 255.088 112.061,251.310 112.609,250.151 113.022 C 249.469 113.265,248.035 113.666,246.962 113.914 C 240.212 115.474,236.403 121.905,238.611 128.011 C 239.087 129.327,241.171 130.206,241.717 129.321 C 241.823 129.150,242.653 128.576,243.562 128.046 C 244.471 127.515,245.574 126.855,246.013 126.579 C 246.452 126.302,247.025 126.066,247.286 126.053 C 247.547 126.041,248.420 125.698,249.225 125.290 C 251.433 124.172,256.261 123.491,258.983 123.913 C 268.965 125.462,270.438 138.367,261.158 142.972 L 259.000 144.043 252.456 144.302 C 243.950 144.639,243.770 144.765,243.845 150.338 C 243.916 155.551,244.453 156.027,250.263 156.037 C 255.078 156.045,259.349 156.487,260.259 157.071 C 260.620 157.303,261.696 157.716,262.649 157.990 C 266.795 159.179,269.912 163.426,269.909 167.880 L 269.906 170.893 268.549 172.843 C 266.928 175.175,263.832 177.399,261.515 177.899 C 257.068 178.859,250.116 178.391,246.962 176.920 C 246.054 176.496,245.041 176.147,244.711 176.143 C 244.381 176.140,243.503 175.782,242.761 175.349 C 239.238 173.295,237.002 173.662,236.567 176.366 C 235.784 181.225,236.738 184.957,239.137 186.413 C 239.727 186.772,240.278 187.149,240.360 187.252 C 240.443 187.354,241.118 187.675,241.860 187.964 C 242.603 188.254,243.645 188.743,244.176 189.053 C 245.181 189.638,251.157 190.865,255.814 191.441 C 258.532 191.777,262.385 191.536,265.353 190.845 C 266.048 190.683,267.664 190.356,268.944 190.118 C 270.240 189.877,271.674 189.399,272.179 189.040 C 272.677 188.685,273.538 188.269,274.091 188.116 C 274.644 187.964,275.604 187.435,276.224 186.943 C 276.844 186.450,277.512 186.047,277.708 186.047 C 278.419 186.047,283.870 181.455,283.871 180.856 C 283.871 180.724,284.336 179.890,284.904 179.001 C 285.472 178.113,286.094 176.804,286.286 176.092 C 286.477 175.380,286.909 174.259,287.245 173.601 C 288.003 172.114,288.170 165.116,287.496 163.091 C 286.576 160.329,283.747 155.314,282.794 154.756 C 282.575 154.628,281.764 154.040,280.990 153.450 C 280.216 152.859,278.841 152.121,277.934 151.808 C 277.027 151.496,276.135 151.125,275.952 150.983 C 275.769 150.841,274.967 150.538,274.170 150.309 C 271.629 149.579,271.604 148.944,274.071 147.766 C 276.060 146.816,277.568 145.879,278.625 144.936 C 280.757 143.035,281.674 141.987,282.048 141.025 C 282.271 140.453,282.756 139.310,283.125 138.485 C 285.346 133.529,284.012 121.672,280.915 118.845 C 280.634 118.589,280.181 118.026,279.907 117.595 C 279.407 116.807,275.760 114.029,275.226 114.029 C 275.070 114.029,274.216 113.699,273.330 113.297 C 270.986 112.234,263.282 111.461,258.515 111.810 M305.608 113.008 C 304.937 113.246,303.924 113.828,303.357 114.302 L 302.326 115.163 302.326 151.229 L 302.326 187.294 303.653 188.460 C 305.451 190.040,305.522 190.045,320.571 189.865 C 332.742 189.720,333.652 189.671,335.484 189.072 C 336.557 188.721,338.440 188.302,339.668 188.141 C 341.114 187.951,342.513 187.529,343.632 186.947 C 344.583 186.452,345.571 186.047,345.827 186.047 C 346.438 186.047,351.067 183.758,351.838 183.075 C 352.168 182.782,352.939 182.243,353.552 181.877 C 354.164 181.511,355.487 180.240,356.492 179.053 C 357.497 177.866,358.622 176.557,358.992 176.144 C 360.099 174.909,361.776 171.903,362.341 170.143 C 362.632 169.235,362.965 168.357,363.080 168.192 C 363.196 168.027,363.460 167.082,363.668 166.092 C 363.876 165.101,364.390 162.873,364.811 161.140 C 365.989 156.286,365.979 145.010,364.794 140.599 C 364.352 138.956,363.991 137.219,363.991 136.739 C 363.991 135.810,362.408 131.557,360.953 128.577 C 359.991 126.608,357.107 123.528,353.068 120.159 C 350.894 118.345,349.999 117.842,344.036 115.081 C 342.399 114.324,335.777 113.249,330.222 112.839 C 323.695 112.357,307.120 112.471,305.608 113.008 M159.940 122.031 C 158.402 122.354,158.440 122.046,158.440 134.151 C 158.440 140.391,158.563 145.823,158.714 146.220 C 159.852 149.211,173.495 147.026,175.644 143.509 C 175.781 143.284,176.263 142.669,176.715 142.143 C 178.662 139.871,179.806 133.440,178.754 130.683 C 178.502 130.023,178.222 129.145,178.132 128.732 C 177.675 126.642,175.601 124.262,173.248 123.130 L 170.973 122.036 165.832 121.954 C 163.004 121.910,160.353 121.944,159.940 122.031 M329.182 124.831 C 330.255 124.994,331.875 125.322,332.783 125.561 C 333.691 125.800,335.078 126.157,335.867 126.355 C 336.655 126.552,337.372 126.830,337.459 126.972 C 337.547 127.114,338.354 127.578,339.252 128.003 C 342.559 129.568,346.991 135.355,348.083 139.535 C 348.277 140.278,348.777 141.854,349.193 143.039 C 350.150 145.762,350.133 156.221,349.167 158.740 C 348.882 159.482,348.517 160.792,348.356 161.650 C 348.072 163.160,346.387 166.767,344.670 169.542 C 343.629 171.224,341.373 173.347,339.985 173.950 C 339.407 174.201,338.235 174.735,337.379 175.137 C 336.523 175.540,335.105 175.988,334.228 176.133 C 333.351 176.279,332.026 176.550,331.283 176.735 C 330.540 176.921,327.478 177.153,324.477 177.251 L 319.022 177.428 318.402 176.411 C 317.584 175.069,317.408 127.501,318.214 125.572 L 318.649 124.531 322.940 124.533 C 325.301 124.535,328.110 124.669,329.182 124.831 M91.223 253.113 L 91.223 257.164 92.123 257.164 C 92.923 257.164,93.023 257.264,93.023 258.065 C 93.023 258.893,93.107 258.965,94.074 258.965 C 95.074 258.965,95.124 259.015,95.124 260.015 C 95.124 261.015,95.174 261.065,96.174 261.065 C 97.174 261.065,97.224 261.115,97.224 262.116 C 97.224 263.082,97.296 263.166,98.125 263.166 C 98.925 263.166,99.025 263.266,99.025 264.066 C 99.025 264.895,99.108 264.966,100.075 264.966 C 101.075 264.966,101.125 265.016,101.125 266.017 L 101.125 267.067 103.057 267.067 L 104.988 267.067 105.082 268.042 C 105.165 268.900,105.294 269.029,106.152 269.111 C 107.009 269.194,107.127 269.312,107.127 270.087 C 107.127 270.894,107.215 270.968,108.177 270.968 C 109.177 270.968,109.227 271.018,109.227 272.018 L 109.227 273.068 111.178 273.068 L 113.128 273.068 113.128 274.119 C 113.128 275.119,113.178 275.169,114.179 275.169 C 115.145 275.169,115.229 275.240,115.229 276.069 C 115.229 276.869,115.329 276.969,116.129 276.969 C 116.958 276.969,117.029 277.053,117.029 278.020 L 117.029 279.070 119.130 279.070 L 121.230 279.070 121.230 280.120 L 121.230 281.170 123.181 281.170 L 125.131 281.170 125.131 282.071 L 125.131 282.971 127.082 282.971 L 129.032 282.971 129.032 284.021 L 129.032 285.071 131.133 285.071 L 133.233 285.071 133.233 286.122 C 133.233 287.088,133.305 287.172,134.134 287.172 C 134.934 287.172,135.034 287.272,135.034 288.072 L 135.034 288.972 137.134 288.972 L 139.235 288.972 139.235 290.023 L 139.235 291.073 142.236 291.073 L 145.236 291.073 145.236 292.123 L 145.236 293.173 148.237 293.173 L 151.238 293.173 151.238 294.074 L 151.238 294.974 154.239 294.974 L 157.239 294.974 157.239 296.024 L 157.239 297.074 161.121 297.074 L 165.003 297.074 165.097 298.050 L 165.191 299.025 169.167 299.108 C 172.429 299.177,173.143 299.272,173.143 299.634 C 173.143 300.019,176.689 300.075,201.050 300.075 C 225.412 300.075,228.957 300.019,228.957 299.634 C 228.957 299.272,229.672 299.177,232.933 299.108 L 236.909 299.025 237.003 298.050 L 237.097 297.074 240.979 297.074 L 244.861 297.074 244.861 296.024 L 244.861 294.974 247.862 294.974 L 250.863 294.974 250.863 294.087 C 250.863 293.202,250.865 293.201,252.888 293.112 L 254.914 293.023 255.008 292.048 L 255.102 291.073 258.084 291.073 L 261.065 291.073 261.065 290.023 L 261.065 288.972 263.016 288.972 L 264.966 288.972 264.966 288.072 L 264.966 287.172 266.917 287.172 L 268.867 287.172 268.867 286.122 L 268.867 285.071 270.968 285.071 L 273.068 285.071 273.068 284.021 L 273.068 282.971 275.019 282.971 L 276.969 282.971 276.969 282.071 L 276.969 281.170 278.920 281.170 L 280.870 281.170 280.870 280.120 C 280.870 279.120,280.920 279.070,281.920 279.070 C 282.921 279.070,282.971 279.020,282.971 278.020 C 282.971 277.019,283.021 276.969,284.021 276.969 C 284.988 276.969,285.071 276.898,285.071 276.069 L 285.071 275.169 287.022 275.169 L 288.972 275.169 288.972 274.119 L 288.972 273.068 290.923 273.068 L 292.873 273.068 292.873 271.131 L 292.873 269.195 294.899 269.106 L 296.924 269.017 297.018 268.042 C 297.101 267.184,297.219 267.067,297.994 267.067 C 298.801 267.067,298.875 266.978,298.875 266.017 C 298.875 265.016,298.925 264.966,299.925 264.966 C 300.887 264.966,300.975 264.892,300.975 264.085 C 300.975 263.310,301.093 263.192,301.950 263.110 C 302.808 263.027,302.937 262.898,303.020 262.041 C 303.102 261.183,303.220 261.065,303.995 261.065 C 304.802 261.065,304.876 260.977,304.876 260.015 C 304.876 259.015,304.926 258.965,305.926 258.965 C 306.888 258.965,306.977 258.891,306.977 258.084 C 306.977 257.309,307.094 257.191,307.952 257.108 C 308.810 257.026,308.939 256.897,309.021 256.039 C 309.104 255.181,309.222 255.064,309.997 255.064 L 310.878 255.064 310.878 252.063 L 310.878 249.062 201.050 249.062 L 91.223 249.062 91.223 253.113 " stroke="none" fill="#fafafa" fill-rule="evenodd"></path></g></svg>